<?xml version="1.0" encoding="UTF-8" standalone="no"?>
<svg
   xmlns:dc="http://purl.org/dc/elements/1.1/"
   xmlns:cc="http://creativecommons.org/ns#"
   xmlns:rdf="http://www.w3.org/1999/02/22-rdf-syntax-ns#"
   xmlns:svg="http://www.w3.org/2000/svg"
   xmlns="http://www.w3.org/2000/svg"
   id="svg7"
   version="1.1"
   viewBox="0 0 256 256"
   height="256pt"
   width="256pt">
  <metadata
     id="metadata13">
    <rdf:RDF>
      <cc:Work
         rdf:about="">
        <dc:format>image/svg+xml</dc:format>
        <dc:type
           rdf:resource="http://purl.org/dc/dcmitype/StillImage" />
        <dc:title></dc:title>
      </cc:Work>
    </rdf:RDF>
  </metadata>
  <defs
     id="defs11" />
  <path
     style="fill:#008000;fill-opacity:1;fill-rule:nonzero;stroke:none"
     d="m 128.12891,-0.164062 c -34.421879,0 -66.050785,13.121093 -90.445316,37.523437 C 13.289062,61.765625 0.171875,93.40625 0.171875,127.84375 c 0,34.4375 13.117187,66.07812 37.511719,90.48047 20.484375,20.49219 46.089844,33.03125 75.062496,36.76172 11.37891,1.46875 28.82032,0.72265 41.25391,-1.75391 44.76172,-8.92187 83.00391,-43.60547 96.40625,-87.4375 14.0625,-45.98437 2.00391,-94.687499 -31.82813,-128.535155 C 194.18359,12.957031 162.55469,-0.164062 128.12891,-0.164062 Z M 126.96484,9.875 c 18.51953,-0.167969 37.02344,4.027344 53.89063,12.480469 23.11328,11.585937 41.14062,29.617187 52.72265,52.742187 16.64454,33.242184 16.64454,72.250004 0,105.488284 -5.80859,11.60156 -11.59765,19.7539 -20.8125,29.33203 -19.5039,20.26953 -45.32812,32.625 -74.04687,35.43359 -21.42187,2.09375 -43.527344,-2.10547 -63.3125,-12.01953 C 63.8125,227.51953 55.660156,221.73047 46.085938,212.51172 9.15625,176.94531 -0.355469,121.10156 22.683594,75.097656 36.53125,47.445312 60.320312,26.527344 89.457031,16.382812 101.61719,12.148438 114.29688,9.988281 126.96484,9.875 Z m 0,0"
     id="path2" />
  <g
     style="fill:#008000"
     transform="matrix(1.8709048,0,0,1.8709048,36.350343,33.061049)"
     id="g4513">
    <path
       style="fill:#008000"
       d="m 55.958,65.628 c -0.723,-0.674 -1.855,-0.635 -2.529,0.088 -0.469,0.508 -0.947,0.952 -1.426,1.333 -1.495,1.191 -3.058,1.807 -4.649,1.836 -0.039,0 -0.068,0 -0.107,0 -1.816,0 -3.398,-0.747 -4.482,-1.44 -0.898,-0.576 -1.445,-1.108 -1.475,-1.138 -0.693,-0.698 -1.816,-0.708 -2.52,-0.02 -0.704,0.688 -0.723,1.821 -0.029,2.524 0.146,0.151 3.633,3.647 8.506,3.647 0.039,0 0.088,0 0.127,0 3.135,-0.044 6.056,-1.489 8.673,-4.307 0.673,-0.721 0.634,-1.849 -0.089,-2.523 z"
       id="path4490" />
    <path
       style="fill:#008000"
       d="m 34.023,49.466 c 0.986,0 1.787,-0.801 1.787,-1.787 0,-1.611 1.318,-2.925 2.92,-2.925 1.611,0 2.93,1.313 2.93,2.925 0,0.986 0.791,1.787 1.777,1.787 0.986,0 1.787,-0.801 1.787,-1.787 0,-3.584 -2.91,-6.494 -6.494,-6.494 -3.574,0 -6.484,2.91 -6.484,6.494 0,0.986 0.791,1.787 1.777,1.787 z"
       id="path4492" />
    <path
       style="fill:#008000"
       d="m 51.915,49.466 c 0.986,0 1.787,-0.801 1.787,-1.787 0,-1.611 1.309,-2.925 2.92,-2.925 1.611,0 2.92,1.313 2.92,2.925 0,0.986 0.801,1.787 1.787,1.787 0.986,0 1.787,-0.801 1.787,-1.787 0,-3.584 -2.91,-6.494 -6.494,-6.494 -3.574,0 -6.495,2.91 -6.495,6.494 0,0.986 0.801,1.787 1.788,1.787 z"
       id="path4494" />
    <path
       style="fill:#008000"
       d="m 20.326,32.579 v 0.105 c 0,0.049 0.096,0.163 0.282,0.163 h 2.621 c -0.188,-0.128 -0.39,-0.243 -0.612,-0.328 -0.773,-0.295 -1.591,-0.251 -2.291,0.06 z"
       id="path4496" />
    <path
       style="fill:#008000"
       d="m 87.452,46.028 c 0,-4.062 -2.91,-7.461 -6.748,-8.228 C 80.85,30.984 80.05,20.177 74.161,14.997 64.151,6.188 54.513,2.955 45.498,5.387 36.113,7.922 29.463,16.34 26.621,22.405 h -2.842 c -3.096,0 -5.605,2.466 -5.605,5.503 v 6.587 c 0,1.997 1.084,3.74 2.705,4.707 -2.49,6.855 -7.891,22.442 -7.891,29.19 0,0.063 0.01,0.127 0.01,0.19 0,0.093 -0.01,0.186 -0.01,0.278 0,5.825 4.307,10.665 9.902,11.495 0.352,6.099 5.42,10.957 11.611,10.957 1.348,0 2.686,-0.239 3.945,-0.693 2.178,2.505 5.352,3.984 8.76,3.984 3.33,0 6.466,-1.436 8.653,-3.867 1.152,0.381 2.363,0.576 3.584,0.576 6.211,0 11.299,-4.897 11.611,-11.035 5.039,-0.957 8.926,-5.152 9.375,-10.401 0.039,-0.176 0.059,-0.361 0.059,-0.547 l -0.01,-0.293 c 0,-0.063 0.01,-0.137 0.01,-0.176 0,-0.127 -0.01,-0.244 -0.02,-0.415 l -0.02,-0.444 c -0.01,-0.083 -0.01,-0.171 -0.02,-0.254 -0.205,-3.438 -1.24,-8.423 -2.48,-13.408 0.361,0.049 0.732,0.083 1.104,0.083 4.631,0 8.4,-3.765 8.4,-8.394 z M 23.525,34.402 v -6.495 c 0,-0.044 0.088,-0.146 0.254,-0.146 h 45.919 c 0.166,0 0.254,0.103 0.254,0.146 v 6.587 c 0,0.044 -0.088,0.146 -0.254,0.146 H 26.123 23.779 c -0.166,0 -0.254,-0.103 -0.254,-0.146 z m 41.613,17.11 c -1.602,1.606 -5.723,1.909 -12.754,1.909 -0.987,0 -1.778,0.801 -1.778,1.788 0,2.104 -0.82,2.925 -2.93,2.925 -2.1,0 -2.92,-0.82 -2.92,-2.925 0,-0.986 -0.801,-1.788 -1.787,-1.788 -7.451,0 -11.807,-0.352 -13.496,-2.231 -1.514,-1.685 -1.65,-5.312 -1.66,-11.191 h 38.8 v 0.527 c 0.019,5.908 0.029,9.472 -1.475,10.986 z m 9.98,17.378 c 0,0.029 0,0.054 0,0.078 0,0.049 -0.01,0.103 -0.01,0.151 -0.137,3.369 -2.881,6.006 -6.25,6.006 -0.146,0 -0.293,-0.015 -0.479,-0.029 -0.85,-0.063 -1.67,0.278 -2.227,0.918 -0.547,0.64 -0.771,1.504 -0.586,2.33 0.098,0.454 0.146,0.908 0.146,1.343 0,3.457 -2.812,6.265 -6.27,6.265 -1.094,0 -2.178,-0.293 -3.135,-0.85 -0.615,-0.356 -1.348,-0.454 -2.031,-0.269 -0.693,0.186 -1.279,0.635 -1.631,1.255 -1.124,1.948 -3.204,3.159 -5.44,3.159 -2.305,0 -4.424,-1.265 -5.518,-3.306 -0.361,-0.659 -0.967,-1.138 -1.689,-1.323 -0.723,-0.19 -1.494,-0.068 -2.119,0.337 -1.016,0.654 -2.188,0.996 -3.379,0.996 -3.457,0 -6.27,-2.808 -6.27,-6.265 0,-0.444 0.059,-0.908 0.156,-1.377 0.195,-0.854 -0.039,-1.749 -0.635,-2.398 -0.586,-0.645 -1.455,-0.967 -2.324,-0.85 -0.322,0.044 -0.576,0.063 -0.82,0.063 -3.447,0 -6.26,-2.812 -6.26,-6.265 0,-0.054 0,-0.103 0.01,-0.151 l 0.01,-0.186 c 0.01,-0.156 0,-0.308 -0.02,-0.459 0.146,-4.707 3.35,-14.971 6.035,-22.72 0.566,9.258 3.359,11.49 16.973,11.641 0.625,2.988 2.891,4.717 6.318,4.717 3.438,0 5.704,-1.729 6.319,-4.712 7.324,-0.063 11.328,-0.605 13.672,-2.959 1.787,-1.797 2.314,-4.253 2.471,-7.998 2.021,6.953 4.648,16.773 4.951,22.061 0,0.034 0,0.059 0,0.093 l 0.039,0.645 c 0.003,0.025 0.003,0.049 -0.007,0.059 z m 0.918,-22.696 c 0,-0.059 -0.02,-0.107 -0.02,-0.166 0,-1.67 1.367,-3.032 3.037,-3.032 0.469,0 0.908,0.112 1.309,0.303 1.016,0.493 1.729,1.523 1.729,2.729 0,1.675 -1.357,3.037 -3.037,3.037 -1.612,0 -2.93,-1.274 -3.018,-2.871 z"
       id="path4498" />
  </g>
</svg>
